<svg xmlns="http://www.w3.org/2000/svg" width="1200" height="500" viewBox="0 0 1200 500">
  <defs><marker id="a" markerWidth="8" markerHeight="8" refX="7" refY="4" orient="auto"><path d="M0 0L8 4L0 8Z" fill="#566c91"/></marker><style>text{font-family:Arial,'Microsoft YaHei',sans-serif;fill:#172033}.t{font-size:24px;font-weight:700}.s{font-size:16px}.b{fill:#f4f7fc;stroke:#60749c;stroke-width:2}.e{stroke:#566c91;stroke-width:3;fill:none;marker-end:url(#a)}.r{stroke:#c47731;stroke-width:2;stroke-dasharray:8 6;fill:none;marker-end:url(#a)}</style></defs>
  <text x="40" y="42" class="t">Open Instruct：统一数据契约连接多阶段后训练</text>
  <rect class="b" x="50" y="165" width="220" height="105" rx="12"/><text x="160" y="198" class="s" text-anchor="middle">数据转换层</text><text x="160" y="228" class="s" text-anchor="middle">messages / preference</text><text x="160" y="253" class="s" text-anchor="middle">verifiable task</text>
  <g class="s" text-anchor="middle"><rect class="b" x="370" y="75" width="230" height="90" rx="12"/><text x="485" y="110">SFT</text><text x="485" y="138">assistant token mask</text><rect class="b" x="370" y="195" width="230" height="90" rx="12"/><text x="485" y="230">DPO / RM</text><text x="485" y="258">chosen / rejected</text><rect class="b" x="370" y="315" width="230" height="90" rx="12"/><text x="485" y="350">在线 RLVR</text><text x="485" y="378">prompt / verifier</text><rect class="b" x="735" y="75" width="230" height="90" rx="12"/><text x="850" y="110">策略起点</text><text x="850" y="138">可继续训练权重</text><rect class="b" x="735" y="195" width="230" height="90" rx="12"/><text x="850" y="230">偏好更新</text><text x="850" y="258">参考策略坐标</text><rect class="b" x="735" y="315" width="230" height="90" rx="12"/><text x="850" y="350">采样 → 奖励 → 更新</text><text x="850" y="378">在线反馈循环</text></g>
  <path class="e" d="M270 200L367 125"/><path class="e" d="M270 220L367 240"/><path class="e" d="M270 245L367 360"/><path class="e" d="M600 120H732"/><path class="e" d="M600 240H732"/><path class="e" d="M600 360H732"/><path class="r" d="M965 360H1090V440H850V408"/><text x="1070" y="345" class="s" text-anchor="middle">rollout 服务</text>
</svg>
