<svg xmlns="http://www.w3.org/2000/svg" width="1200" height="650" viewBox="0 0 1200 650" role="img" aria-labelledby="title desc"><title id="title">稀疏注意力质量与系统联合评测</title><desc id="desc">同一请求分流到全注意力和稀疏注意力，收集质量、路由与系统指标，再做配对统计和失败归因。</desc><defs><style>.bg{fill:#f8fafc}.b{fill:#fff;stroke:#334155;stroke-width:2}.d{fill:#e0f2fe;stroke:#0369a1}.s{fill:#dcfce7;stroke:#15803d}.r{fill:#fef3c7;stroke:#b45309}.o{fill:#f3e8ff;stroke:#7e22ce}.t{font:700 22px 'Microsoft YaHei',sans-serif;fill:#0f172a}.x{font:16px 'Microsoft YaHei',sans-serif;fill:#334155}.a{stroke:#475569;stroke-width:3;fill:none;marker-end:url(#a)}</style><marker id="a" markerWidth="10" markerHeight="10" refX="9" refY="3" orient="auto"><path d="M0 0L10 3L0 6Z" fill="#475569"/></marker></defs><rect class="bg" width="1200" height="650" rx="24"/><text class="t" x="45" y="52">同一 request ID 串起质量、路由与系统指标</text><rect class="b" x="55" y="250" width="180" height="105" rx="14"/><text class="t" x="101" y="291">评测请求</text><text class="x" x="76" y="324">答案 · 证据 · 长度</text><rect class="b d" x="330" y="115" width="240" height="120" rx="14"/><text class="t" x="375" y="157">Dense 回退</text><text class="x" x="360" y="191">答案 · attention mass</text><rect class="b s" x="330" y="375" width="240" height="140" rx="14"/><text class="t" x="370" y="417">Sparse 路径</text><text class="x" x="360" y="451">候选 · page · HBM</text><text class="x" x="362" y="483">TTFT · TPOT · 吞吐</text><rect class="b r" x="690" y="220" width="220" height="150" rx="14"/><text class="t" x="735" y="262">逐请求合并</text><text class="x" x="722" y="299">质量差额 · 召回</text><text class="x" x="720" y="330">时间线 · 物理成本</text><rect class="b o" x="995" y="240" width="165" height="120" rx="14"/><text class="t" x="1025" y="282">配对统计</text><text class="x" x="1018" y="316">置信区间</text><text class="x" x="1018" y="340">失败归因</text><path class="a" d="M235 285C270 240 285 180 330 175"/><path class="a" d="M235 320C275 360 285 430 330 445"/><path class="a" d="M570 175C635 175 630 265 690 280"/><path class="a" d="M570 445C635 445 630 340 690 320"/><path class="a" d="M910 295H995"/></svg>
